<?xml version="1.0" encoding="UTF-8" standalone="no"?>
<svg
   version="1.1"
   id="Layer_1"
   x="0px"
   y="0px"
   viewBox="0 0 1180.24 196.17999"
   xml:space="preserve"
   width="1180.24"
   height="196.17999"
   sodipodi:docname="logo.svg"
   inkscape:version="1.1.1 (3bf5ae0d25, 2021-09-20, custom)"
   xmlns:inkscape="http://www.inkscape.org/namespaces/inkscape"
   xmlns:sodipodi="http://sodipodi.sourceforge.net/DTD/sodipodi-0.dtd"
   xmlns="http://www.w3.org/2000/svg"
   xmlns:svg="http://www.w3.org/2000/svg"><sodipodi:namedview
     id="namedview18"
     pagecolor="#ffffff"
     bordercolor="#666666"
     borderopacity="1.0"
     inkscape:pageshadow="2"
     inkscape:pageopacity="0.0"
     inkscape:pagecheckerboard="0"
     showgrid="false"
     inkscape:zoom="0.64"
     inkscape:cx="638.28125"
     inkscape:cy="-88.28125"
     inkscape:window-width="1366"
     inkscape:window-height="768"
     inkscape:window-x="0"
     inkscape:window-y="0"
     inkscape:window-maximized="1"
     inkscape:current-layer="Layer_1" /><defs
     id="defs73" /><style
     type="text/css"
     id="style2">
	.st0{fill:#2192D1;}
	.st1{fill:#383838;}
	.st2{fill:#FFFFFF;}
	.st3{fill:none;}
	.st4{font-family:'Montserrat-Bold';}
	.st5{font-size:45px;}
	.st6{letter-spacing:-3;}
	.st7{font-size:60px;}
	.st8{letter-spacing:-4;}
</style><g
     id="g26"
     transform="translate(-247.5,-92.81)"
     style="fill:#ffffff"><path
       d="m 332.12,266.81 v 20.3 H 247.5 v -109.3 h 82.6 v 20.3 h -57.46 v 23.73 h 50.75 v 19.67 h -50.75 v 25.29 h 59.48 z"
       id="path4"
       style="fill:#ffffff" /><path
       d="m 341.34,177.81 h 25.29 v 88.69 h 54.81 v 20.61 h -80.1 z"
       id="path6"
       style="fill:#ffffff" /><path
       d="m 452.53,177.81 h 49.65 c 11.87,0 22.35,2.26 31.46,6.79 9.11,4.53 16.18,10.91 21.24,19.13 5.05,8.22 7.57,17.8 7.57,28.73 0,10.93 -2.53,20.51 -7.57,28.73 -5.05,8.22 -12.13,14.6 -21.24,19.13 -9.11,4.53 -19.6,6.79 -31.46,6.79 h -49.65 z m 48.41,88.53 c 10.93,0 19.65,-3.05 26.15,-9.13 6.5,-6.09 9.76,-14.34 9.76,-24.75 0,-10.41 -3.25,-18.66 -9.76,-24.75 -6.51,-6.09 -15.22,-9.13 -26.15,-9.13 h -23.11 v 67.77 h 23.11 z"
       id="path8"
       style="fill:#ffffff" /><path
       d="m 655.2,266.81 v 20.3 h -84.63 v -109.3 h 82.6 v 20.3 h -57.46 v 23.73 h 50.75 v 19.67 h -50.75 v 25.29 h 59.49 z"
       id="path10"
       style="fill:#ffffff" /><path
       d="M 688.28,222.93 V 287.1 H 664.55 V 177.8 h 20.92 l 40.67,57.99 40.52,-57.99 h 20.77 l 0.31,109.3 h -23.73 l -0.16,-65.58 -37.71,53.95"
       id="path12"
       style="fill:#ffffff" /><path
       d="m 823.49,281.64 c -9.11,-4.89 -16.24,-11.63 -21.39,-20.22 -5.15,-8.59 -7.73,-18.24 -7.73,-28.96 0,-10.72 2.58,-20.38 7.73,-28.96 5.15,-8.59 12.28,-15.33 21.39,-20.22 9.11,-4.89 19.33,-7.34 30.68,-7.34 11.34,0 21.55,2.45 30.6,7.34 9.06,4.89 16.18,11.63 21.39,20.22 5.2,8.59 7.81,18.24 7.81,28.96 0,10.72 -2.6,20.38 -7.81,28.96 -5.21,8.59 -12.34,15.33 -21.39,20.22 -9.06,4.89 -19.26,7.34 -30.6,7.34 -11.35,0 -21.57,-2.45 -30.68,-7.34 z m 48.17,-18.66 c 5.2,-2.97 9.29,-7.1 12.26,-12.41 2.97,-5.31 4.45,-11.34 4.45,-18.11 0,-6.77 -1.48,-12.8 -4.45,-18.11 -2.97,-5.31 -7.05,-9.45 -12.26,-12.41 -5.21,-2.97 -11.03,-4.45 -17.49,-4.45 -6.46,0 -12.28,1.48 -17.49,4.45 -5.21,2.97 -9.29,7.1 -12.26,12.41 -2.97,5.31 -4.45,11.35 -4.45,18.11 0,6.77 1.48,12.8 4.45,18.11 2.97,5.31 7.05,9.45 12.26,12.41 5.2,2.97 11.03,4.45 17.49,4.45 6.45,0 12.28,-1.48 17.49,-4.45 z"
       id="path14"
       style="fill:#ffffff" /><path
       d="m 948.26,281.72 c -9,-4.84 -16.08,-11.55 -21.23,-20.14 -5.15,-8.59 -7.73,-18.29 -7.73,-29.12 0,-10.82 2.58,-20.53 7.73,-29.12 5.15,-8.59 12.23,-15.3 21.23,-20.14 9,-4.84 19.13,-7.26 30.37,-7.26 9.47,0 18.04,1.67 25.69,5 7.65,3.33 14.08,8.12 19.28,14.37 l -16.24,14.99 c -7.39,-8.53 -16.55,-12.8 -27.48,-12.8 -6.77,0 -12.8,1.48 -18.11,4.45 -5.31,2.97 -9.45,7.1 -12.41,12.41 -2.97,5.31 -4.45,11.35 -4.45,18.11 0,6.77 1.48,12.8 4.45,18.11 2.97,5.31 7.11,9.45 12.41,12.41 5.31,2.97 11.34,4.45 18.11,4.45 10.93,0 20.09,-4.32 27.48,-12.96 l 16.24,14.99 c -5.21,6.35 -11.66,11.19 -19.36,14.52 -7.7,3.33 -16.29,5 -25.76,5 -11.15,-0.01 -21.22,-2.43 -30.22,-7.27 z"
       id="path16"
       style="fill:#ffffff" /><path
       d="m 1100.68,287.11 -21.08,-30.45 h -1.25 -22.02 v 30.45 h -25.29 v -109.3 h 47.31 c 9.68,0 18.09,1.61 25.22,4.84 7.13,3.23 12.62,7.81 16.47,13.74 3.85,5.93 5.78,12.96 5.78,21.08 0,8.12 -1.95,15.12 -5.86,21 -3.9,5.88 -9.45,10.38 -16.63,13.51 l 24.51,35.13 z m -6.4,-83.77 c -3.96,-3.28 -9.73,-4.92 -17.33,-4.92 h -20.61 v 38.1 h 20.61 c 7.6,0 13.37,-1.66 17.33,-5 3.96,-3.33 5.93,-8.01 5.93,-14.05 0,-6.14 -1.98,-10.86 -5.93,-14.13 z"
       id="path18"
       style="fill:#ffffff" /><path
       d="m 1217.72,263.68 h -50.75 l -9.68,23.42 h -25.92 l 48.72,-109.3 h 24.98 l 48.87,109.3 h -26.54 z m -7.96,-19.2 -17.33,-41.84 -17.33,41.84 z"
       id="path20"
       style="fill:#ffffff" /><path
       d="m 1267.52,198.42 h -34.98 v -20.61 h 95.25 v 20.61 h -34.98 v 88.69 h -25.29 z"
       id="path22"
       style="fill:#ffffff" /><path
       d="m 1391.52,263.68 h -50.75 l -9.68,23.42 h -25.92 l 48.72,-109.3 h 24.98 l 48.87,109.3 h -26.54 z m -7.96,-19.2 -17.33,-41.84 -17.33,41.84 z"
       id="path24"
       style="fill:#ffffff" /></g><polygon
     class="st0"
     points="854.15,149.48 906.91,92.81 906.91,124.31 869.36,165.9 840.01,165.9 817.6,141.26 832.34,125.37 "
     id="polygon28"
     transform="translate(-247.5,-92.81)" /></svg>
